<svg id="Layer_1" data-name="Layer 1" xmlns="http://www.w3.org/2000/svg" viewBox="0 0 1024 1024"><defs><style>.cls-1{fill:#fff;}</style></defs><title>logo</title><rect class="cls-1" width="1024" height="1024"/><path d="M101.31,485.34c0-108.15,39-166.15,103.37-166.15s103.37,58.19,103.37,166.15c0,108.15-39,168.54-103.37,168.54S101.31,593.49,101.31,485.34Zm166.37,0c0-94.55-25.51-132.63-63-132.63s-63,38.08-63,132.63,25.5,135,63,135S267.68,579.89,267.68,485.34Z"/><path d="M363.25,622.38c0-19.1,13.57-32.14,30.12-32.14s30.12,13,30.12,32.14c0,18.47-13.57,31.5-30.12,31.5S363.25,640.85,363.25,622.38Z"/><path d="M478.59,485.34c0-108.15,39-166.15,103.37-166.15s103.37,58.19,103.37,166.15c0,108.15-39,168.54-103.37,168.54S478.59,593.49,478.59,485.34Zm166.37,0c0-94.55-25.51-132.63-63-132.63s-63,38.08-63,132.63,25.51,135,63,135S645,579.89,645,485.34Z"/><path d="M747.4,613.18h73.9V375.7H762.52V348.94c29.39-5.16,50.73-13,68.61-23.68H862.9V613.18h66.6v34.63H747.4Z"/></svg>